<svg width="20" height="21" viewBox="0 0 20 21" fill="none" xmlns="http://www.w3.org/2000/svg">
<path fill-rule="evenodd" clip-rule="evenodd" d="M12.0624 2.23464C10.8652 1.25512 9.14356 1.25512 7.94637 2.23464L1.7717 7.28665C1.30238 7.67063 1.47147 8.42544 2.05975 8.57251C3.0557 8.8215 3.7544 9.71637 3.7544 10.743V15.5818C3.7544 17.3767 5.20947 18.8318 7.0044 18.8318H13.0044C14.7993 18.8318 16.2544 17.3767 16.2544 15.5818V10.743C16.2544 9.71637 16.9531 8.8215 17.949 8.57251C18.5373 8.42544 18.7064 7.67063 18.2371 7.28665L12.0624 2.23464ZM6.99652 1.0737C8.74625 -0.357902 11.2625 -0.3579 13.0123 1.0737L19.187 6.12571C20.6111 7.29093 20.098 9.58144 18.3128 10.0277C17.9846 10.1098 17.7544 10.4047 17.7544 10.743V15.5818C17.7544 18.2051 15.6277 20.3318 13.0044 20.3318H7.0044C4.38104 20.3318 2.2544 18.2051 2.2544 15.5818V10.743C2.2544 10.4047 2.02415 10.1098 1.69594 10.0277C-0.0892094 9.58144 -0.602314 7.29093 0.821839 6.12571L6.99652 1.0737Z" fill="#5B9EE1"/>
</svg>
