<svg width="26" height="14" viewBox="0 0 26 14" fill="none" xmlns="http://www.w3.org/2000/svg">
<path d="M7.73367 7.33308L10.2164 0.352997H8.57526L7.43911 3.38209L7.69159 0.352997H5.96631L3.48361 7.33308H5.08264L6.30295 3.95279L6.09255 7.24528L7.73367 7.33308ZM9.66934 7.33308L12.152 0.352997H10.5951L8.0703 7.33308H9.66934ZM14.1719 6.89408L14.0877 3.38209L16.4442 0.528596L14.1719 6.89408ZM25.6176 4.43569L17.6224 6.58678L17.8328 5.92828H16.1496L16.6967 4.26009H18.1274L18.5482 2.98699L17.1175 3.07479L17.6224 1.66999H19.011L19.4739 0.396897H14.9714L13.3303 2.41629L14.1298 0.352997H12.5308L10.0481 7.33308H11.6892L12.7412 4.34789V7.33308H14.8451L7.31287 9.39637C6.52736 9.63049 5.82602 9.73295 5.20888 9.70367C4.59169 9.67439 4.1148 9.49879 3.77817 9.17688C3.02073 8.59156 2.7542 7.6989 2.97865 6.49898C3.1189 5.70878 3.42747 4.94787 3.90441 4.21619C2.78226 5.44538 1.95468 6.48436 1.4217 7.33308C0.832581 8.24036 0.453863 9.13297 0.285544 10.011C0.117224 10.889 0.215397 11.606 0.580102 12.1621C1.56195 13.8595 3.70802 13.9766 7.01831 12.5133L25.6176 4.43569Z" fill="#1A2530"/>
</svg>
